<svg id="Layer_1" style="enable-background:new 0 0 64 64;" version="1.1" viewBox="0 0 64 64" xml:space="preserve" xmlns="http://www.w3.org/2000/svg" xmlns:xlink="http://www.w3.org/1999/xlink"><g><g><g><path d="M63.70113,35.1731c-0.60771-1.69366-1.85304-3.02868-3.50681-3.75594c-1.65383-0.71728-3.48692-0.73723-5.14076-0.02986     l-11.18803,4.73225c0.01989-0.14946,0.0498-0.28895,0.0498-0.42838c0-2.17191-1.7634-3.94523-3.93525-3.94523h-8.05974     c-0.31881,0-0.6476-0.06974-0.94646-0.19926l-6.82445-3.08839c-1.07592-0.48816-2.23162-0.73723-3.41718-0.73723h-7.71107     V27.1631c0-1.10584-0.8966-1.99253-1.99253-1.99253H0v25.13579h11.02865c1.09593,0,1.99253-0.88669,1.99253-1.99253v-1.56414     h5.12081l11.90537,3.82562c0.98629,0.31881,2.01241,0.46828,3.0386,0.46828c1.61394,0,3.21791-0.38856,4.66251-1.14573     L64,35.99004L63.70113,35.1731z M7.00377,46.61019c-0.76714,0-1.39479-0.62765-1.39479-1.39473     c0-0.76714,0.62765-1.39479,1.39479-1.39479c0.77705,0,1.40471,0.62765,1.40471,1.39479     C8.40847,45.98254,7.78082,46.61019,7.00377,46.61019z M36.81197,48.13451c-1.88295,0.99626-4.12455,1.19547-6.14693,0.53796     L18.6003,44.80696l-5.57912-0.03983V29.71359h7.71107c0.90664,0,1.77338,0.18923,2.6003,0.55791l6.82438,3.08839     c0.55791,0.24907,1.15564,0.37859,1.76341,0.37859h8.05974c1.06601,0,1.94273,0.87672,1.94273,1.9527     c0,1.06595-0.87672,1.94267-1.94273,1.94267H29.5592v1.99253h10.42089c0.68742,0,1.31507-0.1992,1.88295-0.5081v0.00997     l13.95767-5.90784c1.15564-0.48816,2.42091-0.47819,3.56658,0.01995c0.88669,0.38856,1.60403,1.02612,2.07225,1.83309     L36.81197,48.13451z"></path></g><path d="M25.1761,26.72957v-3.80573c0-0.54795,0.44832-0.99627,0.99626-0.99627h3.98506    c0.54795,0,0.99626,0.44832,0.99626,0.99627v6.51557L25.1761,26.72957z"></path><path d="M41.12581,17.93774v11.92525h-0.0498c-0.34873-0.06975-0.71734-0.10957-1.09592-0.10957h-4.84183V17.93774    c0-0.54799,0.44833-0.99626,0.99627-0.99626h3.99503C40.67748,16.94148,41.12581,17.38975,41.12581,17.93774z"></path><path d="M51.09843,13.95268v16.9464l-5.68869,2.40103c-0.08969-0.19926-0.18929-0.38856-0.29887-0.57785V13.95268    c0-0.54799,0.44833-0.99626,0.99627-0.99626h3.99503C50.6501,12.95642,51.09843,13.40469,51.09843,13.95268z"></path></g></g></svg>